<svg width="66" height="66" viewBox="0 0 66 66" fill="none" xmlns="http://www.w3.org/2000/svg">
    <path
        d="M33 65.5C50.9493 65.5 65.5 50.9493 65.5 33C65.5 15.0507 50.9493 0.5 33 0.5C15.0507 0.5 0.5 15.0507 0.5 33C0.5 50.9493 15.0507 65.5 33 65.5Z"
        fill="#F0F0F0" stroke="#E5E5E5" />
    <path
        d="M45.0479 26.0455H37.015L32.9988 19.089L28.9826 26.0455H20.9496L24.9664 33.002L20.9496 39.9585H28.9826L32.9988 46.915L37.015 39.9585H45.0479L41.0311 33.002L45.0479 26.0455ZM37.9331 33.002L35.4661 37.2755H30.5318L28.0644 33.002L30.5316 28.7285H35.466L37.9331 33.002ZM32.9988 24.4549L33.917 26.0454H32.0808L32.9988 24.4549ZM25.597 28.7285H27.4335L26.5152 30.319L25.597 28.7285ZM25.597 37.2755L26.5154 35.685L27.4336 37.2755H25.597ZM32.9988 41.549L32.0806 39.9585H33.917L32.9988 41.549ZM40.4005 37.2755H38.564L39.4824 35.685L40.4005 37.2755ZM38.564 28.7285H40.4005L39.4823 30.319L38.564 28.7285Z"
        fill="#0052B4" />
    <path
        d="M52.919 7.95747H13.0798C10.1594 10.2835 7.65489 13.1087 5.69614 16.3053H60.3026C58.3438 13.1088 55.8393 10.2835 52.919 7.95747Z"
        fill="#0052B4" />
    <path
        d="M13.0798 58.0437H52.9189C55.8393 55.7177 58.3438 52.8924 60.3025 49.6958H5.69617C7.65504 52.8923 10.1595 55.7177 13.0798 58.0437Z"
        fill="#0052B4" />
</svg>
    